<?xml version="1.0" encoding="utf-8"?>
<!DOCTYPE svg PUBLIC "-//W3C//DTD SVG 1.0//EN" "http://www.w3.org/TR/2001/REC-SVG-20010904/DTD/svg10.dtd">
<svg version="1.0" xmlns="http://www.w3.org/2000/svg" width="636px" height="193px" viewBox="0 0 636 193" preserveAspectRatio="xMidYMid meet">
 <g fill="#fefefe">
  <path d="M380 122 c-15.60 -1.85 -26.30 -16.15 -27.35 -36.50 -0.50 -10 0.95 -17.80 4.90 -25.85 3.15 -6.55 7.40 -11.05 13 -13.75 4.75 -2.30 7.95 -3 13.45 -3 8.60 0 15 2.55 20.70 8.30 12.25 12.25 14.90 37.05 5.90 54.55 -2.40 4.65 -8.65 11 -13 13.20 -5.30 2.70 -11.50 3.75 -17.60 3.05z m8 -17.95 c4 -3.20 5.60 -9.40 5.60 -21.30 0 -11.20 -1.30 -17.70 -4.20 -21 -3.65 -4.20 -9.15 -3.10 -11.95 2.30 -4.45 8.75 -3.40 32.50 1.70 38.70 2.85 3.50 5.60 3.90 8.85 1.30z"/>
  <path d="M46.25 120.80 c-7.85 -2.50 -12.55 -8.20 -13.75 -16.80 -1.65 -11.50 3.75 -21.65 14 -26.40 4.30 -2 11.90 -3.65 20.90 -4.60 l6.10 -0.65 0 -2.90 c0 -6.30 -1.80 -10.30 -5.35 -11.75 -2.60 -1.10 -7 -0.85 -9.95 0.50 -2.85 1.30 -4.20 2.95 -5.55 6.60 -1.15 3 -1.25 3.05 -9.80 2.20 -4.70 -0.45 -6.70 -0.85 -7.50 -1.50 l-1.10 -0.90 0.90 -3.45 c2.30 -8.75 9 -14.95 19.30 -17.75 5.15 -1.40 16.25 -1.50 21.05 -0.20 9.60 2.65 15 7.80 16.75 16.15 0.55 2.60 0.75 7.60 0.75 20.70 0 19.70 0.05 20.10 3.80 25.60 1.95 2.85 2.30 3.65 1.90 4.55 -0.70 1.75 -11.60 10.95 -12.95 10.95 -1.60 0 -4.35 -2.35 -7.05 -6 -1.30 -1.75 -2.40 -3.15 -2.50 -3.15 -0.15 0 -1.70 1.25 -3.45 2.75 -3.60 3.05 -7.25 5.05 -11 6.05 -3.15 0.85 -12.80 0.85 -15.50 0z m19.10 -16.60 c4.10 -3.10 5.90 -7.25 6.45 -14.80 l0.35 -4.50 -2.45 0.35 c-9.15 1.25 -13.85 4.40 -15.10 10.15 -0.85 3.80 0.80 8 3.90 9.70 2.20 1.20 4.50 0.90 6.85 -0.90z"/>
  <path d="M228.65 120.45 c-7.85 -2.45 -12.50 -9.15 -13 -18.70 -0.30 -5.35 0.35 -9.10 2.35 -13.15 4.75 -9.45 13.50 -13.65 32.70 -15.60 l5.90 -0.65 -0.20 -4.80 c-0.20 -5.80 -1.35 -8.10 -4.60 -9.60 -2.70 -1.20 -7.40 -1.25 -10.05 0 -2.55 1.15 -5.05 4 -5.75 6.55 -0.90 3.30 -1.40 3.40 -9.80 2.50 -9.50 -1.05 -9.50 -1.05 -7.15 -8 2.65 -7.70 9.40 -13.30 19.20 -15.80 5.40 -1.40 15.80 -1.30 21 0.20 8.55 2.50 13.45 6.75 15.90 13.85 0.30 0.85 0.65 9.90 0.85 21.25 0.25 13.05 0.55 20.40 0.95 21.65 0.35 1 1.60 3.30 2.80 5.10 1.25 1.80 2.25 3.80 2.25 4.40 0 0.85 -1.30 2.35 -4.85 5.40 -7.20 6.25 -7.75 6.60 -9.20 6 -1.40 -0.50 -5.90 -5.20 -7.30 -7.60 -0.45 -0.80 -1.05 -1.45 -1.30 -1.45 -0.25 0 -1.75 1.20 -3.30 2.65 -5.50 5.05 -10.55 6.85 -19.05 6.80 -3.75 0 -6.10 -0.30 -8.35 -1z m18.70 -15.50 c4.55 -2.20 7.15 -7.40 7.55 -15.10 l0.25 -4.90 -1.95 0.30 c-7 1.15 -9.30 1.95 -12 4.35 -3.65 3.20 -4.65 7.85 -2.55 11.90 1.15 2.35 3.80 4.50 5.50 4.50 0.60 0 2 -0.45 3.20 -1.05z"/>
  <path d="M495.65 120.50 c-0.85 -0.55 -1.95 -1.85 -2.40 -2.85 -2.95 -6.25 5.30 -11.90 10.75 -7.35 3 2.55 2.95 6.80 -0.20 9.65 -1.85 1.70 -5.95 2 -8.15 0.55z"/>
  <path d="M111 120.65 c-2 -0.70 -2 -0.45 -2 -38.15 0 -30.55 0.10 -36.45 0.70 -37.30 0.65 -0.85 1.40 -0.95 8.55 -0.95 9.55 0 9.25 -0.25 9.25 6.70 l0.05 4.80 1.55 -2.90 c0.85 -1.60 2.80 -4 4.25 -5.35 3.65 -3.30 7.15 -4.60 12.65 -4.60 7.55 0 12.40 2.80 16.20 9.30 1.05 1.80 2 3.30 2.05 3.30 0.10 0 0.65 -0.95 1.20 -2.15 1.60 -3.30 5.20 -6.75 8.80 -8.45 11.20 -5.25 24.45 -0.15 27.85 10.75 1.15 3.60 1.15 3.75 1.10 33.50 -0.05 27.30 -0.15 30 -0.90 30.75 -0.70 0.75 -2 0.85 -8.85 0.85 -7.35 0 -8.10 -0.10 -8.75 -0.95 -0.60 -0.85 -0.70 -5.25 -0.70 -26.25 0 -15.85 -0.20 -26 -0.50 -27.15 -1.25 -4.35 -5.45 -6.60 -10.05 -5.40 -3.15 0.85 -6.20 4.15 -6.90 7.50 -0.35 1.65 -0.55 10.80 -0.55 25.90 0 12.85 -0.15 23.85 -0.30 24.45 -0.50 1.75 -3.10 2.25 -10.80 2.05 -4.75 -0.10 -7.05 -0.35 -7.50 -0.80 -0.50 -0.50 -0.70 -6.30 -0.90 -26.75 l-0.25 -26.10 -1.20 -2.45 c-0.95 -1.95 -1.65 -2.60 -3.45 -3.40 -4 -1.80 -8.20 -0.75 -10.70 2.65 -2.20 3 -2.40 5.80 -2.40 30.95 0 13.05 -0.20 24 -0.40 24.30 -0.90 1.35 -2.75 1.70 -9.45 1.65 -3.80 0 -7.25 -0.15 -7.65 -0.30z"/>
  <path d="M428 120.35 l-1.25 -0.65 -0.15 -36.95 -0.10 -37 1.05 -0.85 c0.90 -0.75 2.10 -0.90 7.65 -0.90 9.25 0 9 -0.20 9.30 7.20 l0.25 5.95 1.50 -3.20 c0.85 -1.80 2.65 -4.35 4.25 -5.95 3.60 -3.70 7 -5.05 12.85 -5.10 10.60 0 17 5.05 19.45 15.45 0.65 2.80 0.85 8.15 1.05 30.80 0.15 15.05 0.10 28.15 -0.05 29.05 -0.50 2.55 -1.90 2.90 -10.45 2.70 -5.15 -0.10 -7.50 -0.35 -7.95 -0.80 -0.50 -0.50 -0.70 -6.30 -0.90 -26.75 -0.30 -28.70 -0.20 -28 -3.45 -31.05 -3.10 -2.95 -9.35 -2.05 -12.05 1.75 -0.65 0.85 -1.60 2.95 -2.15 4.60 -1 2.90 -1.10 4.50 -1.35 27.10 l-0.25 23.95 -1.25 0.65 c-1.70 0.85 -14.30 0.85 -16 0z"/>
  <path d="M519.50 120.60 c-1.75 -0.10 -3.50 -0.40 -3.85 -0.70 -0.50 -0.40 -0.65 -7.90 -0.65 -37.20 l0 -36.65 1.10 -0.75 c0.75 -0.55 2.30 -0.80 4.75 -0.80 6.25 0 5.70 -4 5.55 38.50 -0.10 23.50 -0.35 36.60 -0.65 36.90 -0.75 0.70 -2.60 0.90 -6.25 0.70z"/>
  <path d="M540.60 119.90 c-0.85 -0.85 -0.85 -73.95 0 -74.80 0.85 -0.85 8.10 -0.80 8.80 0.05 0.30 0.35 0.65 3.10 0.70 6.10 l0.15 5.45 1.85 -3 c2.40 -3.90 6.20 -7.40 9.80 -9.10 2.55 -1.20 3.40 -1.35 8.60 -1.35 5.45 0 5.95 0.10 9.10 1.60 4.30 2 7.40 5.25 9.60 9.85 3.10 6.40 3.30 8.75 3.30 38.25 0 19.85 -0.15 26.50 -0.60 26.95 -0.35 0.35 -2.20 0.60 -4.90 0.60 -2.70 0 -4.55 -0.25 -4.90 -0.60 -0.45 -0.45 -0.60 -6.55 -0.60 -24.40 0 -24.90 -0.35 -30.55 -2.10 -34.60 -1.35 -3.10 -5.15 -6.65 -7.95 -7.40 -7.55 -2.05 -16.75 5.90 -19.45 16.75 -0.45 1.75 -0.70 9.50 -0.85 25.75 -0.15 15.20 -0.40 23.45 -0.75 23.85 -0.70 0.85 -8.95 0.90 -9.80 0.05z"/>
  <path d="M291.20 117.75 c-0.70 -1.05 -0.80 -2.45 -0.65 -8.60 0.20 -6.65 0.30 -7.60 1.35 -9.35 0.65 -1.05 7.10 -10.45 14.35 -20.85 7.30 -10.45 13.25 -19.05 13.25 -19.20 0 -0.15 -5.45 -0.25 -12.15 -0.25 -9.70 0 -12.35 -0.15 -13.15 -0.70 -0.85 -0.65 -0.95 -1.35 -0.95 -7.05 0 -5.70 0.10 -6.40 0.95 -7.05 0.85 -0.60 5.05 -0.70 24.80 -0.70 22.45 0 23.90 0.05 24.65 0.90 0.70 0.75 0.85 2 0.85 6.20 l0 5.25 -2.40 3.70 c-1.35 2.05 -7.35 10.65 -13.30 19.15 -10.45 14.80 -12.10 17.35 -10.95 16.65 1 -0.60 12.25 0.70 16.45 1.95 2.35 0.65 5.60 1.90 7.25 2.75 3.90 1.95 4.45 3.15 4.45 10.15 0 8.30 -0.70 9.10 -5.90 6.90 -9 -3.85 -11.25 -4.30 -21.85 -4.35 -10.10 0 -13.55 0.65 -21.15 4 -2.20 0.95 -4.25 1.75 -4.55 1.75 -0.30 0 -0.90 -0.55 -1.35 -1.25z"/>
  <path d="M516.70 30.05 c-4.45 -2.70 -3.80 -9.30 1.10 -11.35 2.35 -1 4 -0.85 6.25 0.40 4.40 2.45 4.55 8.35 0.30 10.90 -2.05 1.30 -5.60 1.30 -7.65 0.05z"/>
 </g>
 <g fill="#f89c35">
  <path d="M200.75 177.20 c-24.65 -2.45 -43.55 -7.70 -64 -17.70 -13.40 -6.60 -25.95 -14.80 -36.90 -24.20 -3.30 -2.85 -3.90 -3.60 -3.75 -4.70 0.25 -2.20 2.10 -2 7.40 0.95 28.65 15.85 62.85 25.85 97.10 28.50 10.05 0.75 33.80 0.35 42.65 -0.75 22 -2.75 42.95 -8.05 61.55 -15.55 2.40 -0.95 5.10 -1.75 5.95 -1.75 3 0 4.35 3.40 2.20 5.55 -4.10 4.10 -23.30 14.40 -34.75 18.65 -12.25 4.50 -27 8.15 -40.95 10.10 -5.70 0.80 -31.20 1.40 -36.50 0.90z"/>
  <path d="M316.50 166.85 c0 -0.65 1.15 -4.15 2.50 -7.80 4.25 -11.10 5.90 -18.95 4.80 -22.45 -0.50 -1.55 -2.60 -2.50 -6.90 -3.15 -3.65 -0.50 -7.20 -0.40 -19.05 0.65 -4.70 0.40 -6.55 0.40 -6.95 0 -1.60 -1.60 4.60 -5.60 12.15 -7.80 8.55 -2.45 18.45 -2.85 26.45 -1 4.20 0.95 5.10 1.70 5.45 4.30 1.10 7.90 -3.20 22.30 -9.15 30.55 -4.35 6.15 -9.30 9.70 -9.30 6.70z"/>
 </g>
 <g fill="#252f25">
  <path d="M57 106.60 c-3.40 -1.85 -5.15 -7.25 -4 -12.35 1.45 -6.50 6.55 -9.70 16.70 -10.55 l3.95 -0.35 -0.30 5.95 c-0.45 8.95 -2.10 13.05 -6.65 16.50 -2.40 1.85 -7.05 2.25 -9.70 0.80z"/>
  <path d="M239.95 106.35 c-2.60 -1.70 -3.95 -4.85 -3.95 -9.10 0 -2.30 0.35 -4.20 0.95 -5.50 1.05 -2.35 3.80 -4.90 6.45 -6.05 2.15 -0.95 8.50 -2.15 11.30 -2.20 l1.90 0 -0.20 6.40 c-0.25 7.10 -1.10 10.10 -3.85 13.55 -3.10 3.90 -9.05 5.30 -12.60 2.90z"/>
  <path d="M380.70 106.80 c-4.20 -1.90 -6.45 -7.60 -7.30 -18.65 -0.65 -7.95 -0.05 -17.95 1.30 -22.45 1.50 -4.95 4.20 -7.65 7.95 -8.05 9.30 -1.05 12.55 5.50 12.50 25.35 0 13.35 -1.50 19.20 -5.75 22.65 -2.25 1.80 -6.15 2.30 -8.70 1.15z"/>
 </g>
</svg>